<svg width="16" height="16" viewBox="0 0 16 16" fill="none" xmlns="http://www.w3.org/2000/svg">
<path d="M8.35357 11.3536C8.44734 11.2598 8.50002 11.1326 8.50002 11V9.6875H9.75002C9.88263 9.6875 10.0098 9.63482 10.1036 9.54105C10.1973 9.44729 10.25 9.32011 10.25 9.1875C10.25 9.05489 10.1973 8.92772 10.1036 8.83395C10.0098 8.74018 9.88263 8.6875 9.75002 8.6875H8.50002V7.5C8.50002 7.36739 8.44734 7.24021 8.35357 7.14645C8.25981 7.05268 8.13263 7 8.00002 7C7.86741 7 7.74024 7.05268 7.64647 7.14645C7.5527 7.24021 7.50002 7.36739 7.50002 7.5V8.6875H6.25002C6.11741 8.6875 5.99024 8.74018 5.89647 8.83395C5.8027 8.92771 5.75002 9.05489 5.75002 9.1875C5.75002 9.32011 5.8027 9.44729 5.89647 9.54105C5.99024 9.63482 6.11741 9.6875 6.25002 9.6875H7.50002V11C7.50002 11.1326 7.5527 11.2598 7.64647 11.3536C7.74024 11.4473 7.86741 11.5 8.00002 11.5C8.13263 11.5 8.25981 11.4473 8.35357 11.3536Z" fill="black"/>
<path fill-rule="evenodd" clip-rule="evenodd" d="M14.125 12.6325L14.9913 6.13187H14.9906C15.0094 5.99071 14.9978 5.84717 14.9567 5.71084C14.9155 5.57452 14.8457 5.44857 14.7519 5.34141C14.6581 5.23425 14.5425 5.14835 14.4128 5.08947C14.2832 5.0306 14.1424 5.00009 14 5H11.7269L8.37502 1.17062C8.3281 1.11742 8.2704 1.07481 8.20574 1.04562C8.14108 1.01644 8.07096 1.00134 8.00002 1.00134C7.92908 1.00134 7.85896 1.01644 7.7943 1.04562C7.72965 1.07481 7.67194 1.11742 7.62502 1.17062L4.27315 5H2.00002C1.85745 4.9999 1.71651 5.03029 1.58664 5.08913C1.45678 5.14796 1.34099 5.23389 1.24706 5.34114C1.15313 5.44839 1.08321 5.57449 1.04201 5.71098C1.0008 5.84746 0.989255 5.99118 1.00815 6.1325L1.87502 12.6325C1.90714 12.8727 2.02542 13.0932 2.20787 13.2527C2.39032 13.4123 2.62451 13.5002 2.8669 13.5H13.1331C13.3755 13.5002 13.6097 13.4123 13.7922 13.2527C13.9746 13.0932 14.0929 12.8727 14.125 12.6325ZM8.00002 2.25937L10.3981 5H5.6019L8.00002 2.25937ZM2.00002 6H14L13.1331 12.5H2.8669L2.00002 6Z" fill="black"/>
</svg>
