<svg width="16" height="16" viewBox="0 0 16 16" fill="none" xmlns="http://www.w3.org/2000/svg">
<path d="M5.66528 4.57591C5.84461 6.23168 6.31103 7.86154 6.31103 9.53273C6.75074 9.53273 7.5634 9.59439 8.00311 9.59439C8.08223 9.59439 8.37959 9.63792 8.4244 9.56014C8.57501 9.29867 8.67542 8.95152 8.78354 8.66949C8.99377 8.12107 9.08138 7.54172 9.29461 6.9978C9.60766 6.19926 9.98645 5.43153 10.303 4.63414C10.6765 3.69316 10.9729 2.75263 10.9729 1.7361C10.9729 1.55893 11.0401 1.22959 10.9107 1.08524C10.2873 0.389467 8.74205 0.591953 7.91333 0.591953H5.82068C5.62382 0.591953 5.56514 0.568163 5.56514 0.776934V1.70184C5.56514 2.66226 5.56166 3.61911 5.66528 4.57591Z" fill="#FF1C1C"/>
<path fill-rule="evenodd" clip-rule="evenodd" d="M8.45632 1.14341C8.27357 1.1503 8.09364 1.15708 7.91333 1.15708H6.13027V1.70184C6.13027 1.72818 6.13027 1.75448 6.13027 1.78075C6.13019 2.71971 6.13012 3.61934 6.22713 4.51506C6.29327 5.12579 6.39884 5.72772 6.50808 6.35063C6.54295 6.54944 6.57819 6.75039 6.61265 6.95444C6.72362 7.61164 6.82412 8.29013 6.86112 8.98363C6.96435 8.98827 7.06954 8.99344 7.17243 8.99851L7.18487 8.99912C7.50377 9.01482 7.80047 9.02927 8.00312 9.02927C8.01986 9.02927 8.03641 9.02984 8.05064 9.03054C8.08088 8.95364 8.11009 8.87075 8.14215 8.77979C8.17552 8.68511 8.21197 8.5817 8.25586 8.4672C8.34835 8.22594 8.41548 7.97375 8.49182 7.68671L8.49217 7.68538C8.56581 7.40851 8.6485 7.0976 8.76848 6.79154C8.93015 6.37915 9.10799 5.97676 9.28079 5.58665L9.29229 5.56071C9.4626 5.17626 9.62765 4.80368 9.7777 4.42566C10.1436 3.5037 10.4078 2.64368 10.4078 1.7361C10.4078 1.67228 10.4131 1.60127 10.4167 1.55242C10.4171 1.54752 10.4174 1.54285 10.4178 1.53842C10.4219 1.48264 10.4247 1.43996 10.4251 1.40215C10.2535 1.26711 9.93787 1.1727 9.4529 1.14165C9.10089 1.11912 8.77433 1.13142 8.45632 1.14341ZM5.71968 1.15627C5.71124 1.15693 5.70912 1.15654 5.71527 1.15635C5.71624 1.15632 5.71763 1.15629 5.71968 1.15627ZM11.3316 0.708107C11.5533 0.955502 11.5561 1.2781 11.5554 1.40126C11.555 1.48431 11.5492 1.5645 11.545 1.62149C11.54 1.68906 11.538 1.71773 11.538 1.7361C11.538 2.86158 11.2093 3.88261 10.8282 4.84263C10.6699 5.24159 10.4969 5.63194 10.3292 6.01056L10.3142 6.04442C10.1402 6.43716 9.97214 6.81791 9.82076 7.20406C9.7277 7.44144 9.66004 7.69165 9.5841 7.97721L9.57776 8.00104C9.50604 8.27082 9.42559 8.57343 9.31122 8.87177C9.29226 8.92124 9.27028 8.98359 9.24542 9.05408C9.16404 9.28491 9.05187 9.60305 8.9141 9.84222C8.83457 9.98027 8.72156 10.0535 8.64836 10.0899C8.5741 10.1269 8.50471 10.1441 8.45824 10.1531C8.36607 10.171 8.27685 10.1723 8.21934 10.1715C8.1565 10.1707 8.09627 10.1666 8.05534 10.1636C8.01172 10.1605 8.00023 10.1597 8.00024 10.1596C8.00024 10.1595 8.00143 10.1595 8.00312 10.1595C7.76925 10.1595 7.44543 10.1436 7.14172 10.1286L7.12929 10.128C6.81038 10.1123 6.51369 10.0979 6.31104 10.0979H5.74592V9.53273C5.74592 8.74648 5.63612 7.9596 5.49818 7.14263C5.46646 6.95477 5.43302 6.76422 5.39923 6.57165C5.28852 5.94075 5.17399 5.28806 5.10345 4.63676C4.99973 3.67905 4.99987 2.72511 5.00001 1.80313C5.00002 1.76932 5.00002 1.73556 5.00002 1.70184V0.776935C5.00002 0.7118 5.00284 0.602551 5.03856 0.489586C5.08321 0.348353 5.18181 0.195331 5.36115 0.103331C5.49972 0.032249 5.63437 0.0280679 5.67945 0.0266681C5.71088 0.025691 5.76677 0.0262778 5.79871 0.0266298C5.80893 0.0267424 5.81676 0.0268287 5.82068 0.0268287H7.91333C8.01738 0.0268287 8.15633 0.0219638 8.31589 0.0163773C8.66956 0.00399455 9.1245 -0.0119336 9.52511 0.0137115C10.1066 0.0509359 10.8578 0.179364 11.3316 0.708107Z" fill="black"/>
<path fill-rule="evenodd" clip-rule="evenodd" d="M9.47299 4.11985C9.29848 4.12257 9.11771 4.12538 8.92958 4.12538C8.61747 4.12538 8.36446 3.87237 8.36446 3.56026C8.36446 3.24815 8.61747 2.99514 8.92958 2.99514C9.0724 2.99514 9.22256 2.99219 9.37838 2.98914C10.1566 2.97388 11.0758 2.95586 11.9247 3.28804C12.1922 3.3927 12.4484 3.51575 12.6998 3.66794C12.7023 3.66931 12.7063 3.67146 12.7121 3.67459C12.7256 3.68178 12.7491 3.69441 12.7724 3.70802C12.7728 3.70826 12.7734 3.70858 12.7741 3.70897C12.7868 3.71629 12.8447 3.7497 12.8976 3.79706C12.9136 3.81142 12.9504 3.84562 12.9865 3.89715C13.0088 3.92883 13.1138 4.07993 13.0853 4.29797C13.0479 4.58371 12.8319 4.71374 12.7236 4.75484C12.6268 4.79156 12.544 4.79225 12.518 4.79225C12.3766 4.79225 12.2474 4.74035 12.1483 4.65456C12.1394 4.64962 12.1299 4.64419 12.1218 4.63929C11.9296 4.52227 11.73 4.42555 11.5129 4.34057C10.8923 4.09775 10.2438 4.10785 9.47299 4.11985ZM12.2035 4.68464C12.2117 4.68943 12.2099 4.68886 12.202 4.68375C12.2025 4.68407 12.203 4.68437 12.2035 4.68464ZM12.4909 3.66264C12.5033 3.66202 12.5125 3.66201 12.518 3.66201C12.5089 3.66201 12.4999 3.66222 12.4909 3.66264ZM8.43109 6.06249H8.42163C8.10952 6.06249 7.85651 5.80947 7.85651 5.49736C7.85651 5.18525 8.10952 4.93224 8.42163 4.93224C8.43622 4.93224 8.45102 4.93223 8.46602 4.93222C8.71588 4.93202 9.02172 4.93178 9.32755 4.98458C10.0577 5.11065 10.7157 5.51906 11.2152 5.84088C11.4907 6.01832 11.7512 6.21278 12.0002 6.45095C12.0466 6.49539 12.0815 6.54385 12.0905 6.55635C12.0909 6.55697 12.0913 6.5575 12.0916 6.55793C12.0915 6.55775 12.0918 6.55811 12.0916 6.55793C12.1939 6.6602 12.2576 6.80204 12.2576 6.95813L12.2576 6.95927C12.2576 6.98813 12.2577 7.11937 12.174 7.25627C12.1232 7.33946 12.038 7.42938 11.9103 7.48312C11.7858 7.53553 11.6695 7.53306 11.5884 7.51826C11.4511 7.49316 11.3618 7.42368 11.3409 7.40743C11.3073 7.38135 11.2829 7.35632 11.2713 7.34403C11.2354 7.30581 11.2058 7.2632 11.1996 7.25432C11.1992 7.25377 11.1989 7.25335 11.1987 7.25307C11.1949 7.24756 11.1919 7.24334 11.1896 7.23999C11.013 7.07503 10.8219 6.932 10.6031 6.79103C10.0886 6.45958 9.60958 6.18025 9.13525 6.09835C8.92748 6.06248 8.70931 6.06248 8.43109 6.06249ZM11.13 6.90326C11.1273 6.92943 11.1273 6.94831 11.1273 6.95677L11.1273 6.95813C11.1273 6.93962 11.1282 6.92131 11.13 6.90326Z" fill="black"/>
<path d="M6.64065 15.2743C6.87184 15.3311 7.11931 15.3111 7.35559 15.3111C7.46912 15.349 7.56162 15.3284 7.67967 15.3546C7.75395 15.3711 7.82512 15.3996 7.89873 15.4191C7.98856 15.443 8.08712 15.4326 8.17931 15.4326C8.4459 15.4326 8.74052 15.2809 8.92875 15.1011C9.2099 14.8324 9.38396 14.4112 9.38112 14.0253C9.37885 13.7166 9.31829 13.4175 9.22658 13.1235C9.1222 12.789 8.95918 12.4158 8.71645 12.1573C8.42751 11.8496 8.03486 11.7454 7.62566 11.7357C7.26734 11.7271 6.90648 11.7703 6.60089 11.9697C6.26851 12.1867 6.01449 12.5547 5.85295 12.9097C5.65023 13.3552 5.53017 13.8935 5.75242 14.3539C5.92956 14.7208 6.22045 15.1712 6.64065 15.2743Z" fill="#FF1C1C"/>
<path fill-rule="evenodd" clip-rule="evenodd" d="M7.61221 12.3006C7.29723 12.2931 7.07383 12.3359 6.90984 12.443C6.70053 12.5796 6.50447 12.8425 6.36736 13.1438C6.18668 13.5408 6.15045 13.8784 6.26139 14.1082C6.33893 14.2688 6.43104 14.425 6.53388 14.5445C6.63878 14.6665 6.7218 14.7124 6.77541 14.7255C6.88232 14.7518 6.98419 14.7503 7.15389 14.7478C7.21216 14.747 7.27842 14.746 7.35563 14.746H7.44734L7.52332 14.7713C7.52783 14.7717 7.53542 14.7723 7.54706 14.7729C7.55058 14.7731 7.5549 14.7733 7.55996 14.7736C7.60311 14.7756 7.69955 14.7801 7.80231 14.803C7.86679 14.8173 7.92447 14.8356 7.9619 14.8476C7.96853 14.8497 7.97457 14.8516 7.98013 14.8534C8.00384 14.861 8.01858 14.8657 8.03138 14.8695C8.03419 14.8696 8.03798 14.8697 8.04287 14.8697C8.05592 14.8698 8.07097 14.8696 8.09493 14.8689C8.09684 14.8689 8.09883 14.8688 8.1009 14.8688C8.12165 14.8683 8.15042 14.8675 8.17935 14.8675C8.26091 14.8675 8.42267 14.803 8.53837 14.6925C8.70449 14.5337 8.81777 14.2629 8.81605 14.0294C8.81431 13.7922 8.76773 13.5502 8.68714 13.2918C8.59187 12.9865 8.46023 12.7099 8.30452 12.5441C8.15951 12.3897 7.94135 12.3085 7.61221 12.3006ZM6.29202 11.4965C6.73922 11.2046 7.23755 11.1611 7.63919 11.1707C8.12845 11.1824 8.69561 11.3095 9.12845 11.7704C9.45822 12.1216 9.65262 12.5915 9.7661 12.9552C9.86894 13.2849 9.94348 13.641 9.94627 14.0211C9.95023 14.5594 9.71539 15.1311 9.31921 15.5096C9.05845 15.7588 8.63098 15.9978 8.17935 15.9978C8.16553 15.9978 8.15078 15.9981 8.12607 15.9988L8.12356 15.9988C8.10031 15.9994 8.06782 16.0002 8.03349 15.9999C7.9661 15.9994 7.86496 15.9949 7.75369 15.9653C7.70654 15.9528 7.65957 15.9376 7.62957 15.9279C7.625 15.9265 7.62081 15.9251 7.61709 15.9239C7.58196 15.9127 7.56692 15.9085 7.55712 15.9063C7.55712 15.9063 7.55643 15.906 7.54627 15.9051C7.5359 15.9042 7.52797 15.9038 7.5124 15.903C7.5052 15.9026 7.49636 15.9021 7.4849 15.9015C7.44121 15.8991 7.37109 15.8949 7.28706 15.8771C7.27602 15.8773 7.26453 15.8775 7.25265 15.8778C7.06308 15.8818 6.77022 15.888 6.50598 15.8232C6.13939 15.7332 5.86686 15.5023 5.67698 15.2815C5.48504 15.0584 5.34313 14.8058 5.24354 14.5995C4.90997 13.9086 5.11385 13.1696 5.33862 12.6757C5.52459 12.267 5.83657 11.7938 6.29202 11.4965Z" fill="black"/>
</svg>
