<svg width="16" height="16" viewBox="0 0 16 16" fill="none" xmlns="http://www.w3.org/2000/svg">
<path d="M10.5 1.5V0.5C10.5 0.367392 10.5527 0.240215 10.6464 0.146447C10.7402 0.0526784 10.8674 0 11 0C11.1326 0 11.2598 0.0526784 11.3535 0.146447C11.4473 0.240215 11.5 0.367392 11.5 0.5V1.5C11.5 1.63261 11.4473 1.75979 11.3535 1.85355C11.2598 1.94732 11.1326 2 11 2C10.8674 2 10.7402 1.94732 10.6464 1.85355C10.5527 1.75979 10.5 1.63261 10.5 1.5ZM12.7394 2.5625C12.818 2.6098 12.9082 2.63426 13 2.63313C13.0858 2.63326 13.1702 2.61131 13.2451 2.56939C13.3199 2.52747 13.3828 2.46698 13.4275 2.39375L13.9275 1.57438C13.9623 1.5183 13.9856 1.4559 13.9962 1.39076C14.0068 1.32563 14.0043 1.25904 13.989 1.19485C13.9737 1.13066 13.9459 1.07013 13.9071 1.01675C13.8683 0.963378 13.8193 0.918209 13.763 0.883853C13.7066 0.849497 13.644 0.826632 13.5788 0.816578C13.5136 0.806524 13.447 0.809479 13.383 0.825273C13.3189 0.841067 13.2586 0.869387 13.2055 0.9086C13.1524 0.947814 13.1077 0.997145 13.0737 1.05375L12.5737 1.8725C12.5391 1.92861 12.5159 1.99103 12.5054 2.05616C12.495 2.12129 12.4975 2.18784 12.5129 2.25197C12.5283 2.31611 12.5563 2.37657 12.5951 2.42986C12.634 2.48315 12.683 2.52823 12.7394 2.5625ZM15.7044 3.34938C15.6842 3.28687 15.652 3.22894 15.6094 3.17891C15.5669 3.12887 15.5149 3.0877 15.4565 3.05776C15.398 3.02781 15.3343 3.00967 15.2688 3.00437C15.2034 2.99907 15.1375 3.00672 15.075 3.02688L14.1375 3.33C14.0238 3.36634 13.9269 3.44213 13.8643 3.54368C13.8016 3.64523 13.7773 3.76584 13.7958 3.88373C13.8143 4.00162 13.8743 4.109 13.9651 4.18649C14.0558 4.26398 14.1713 4.30645 14.2906 4.30625C14.3428 4.30605 14.3947 4.29783 14.4444 4.28188L15.3819 3.97875C15.4447 3.95862 15.5028 3.92628 15.5531 3.88357C15.6033 3.84086 15.6446 3.78864 15.6746 3.72991C15.7046 3.67118 15.7226 3.60711 15.7277 3.54137C15.7329 3.47563 15.7249 3.40953 15.7044 3.34687V3.34938ZM13.8294 5.84562C14.3822 6.79651 14.6048 7.90362 14.4625 8.99428C14.3201 10.0849 13.8208 11.0978 13.0425 11.875C12.7724 12.8188 12.2305 13.6622 11.4844 14.3C10.7382 14.9379 9.82075 15.342 8.84645 15.462C7.87216 15.5819 6.8841 15.4125 6.00548 14.9746C5.12686 14.5368 4.39656 13.8501 3.90562 13L1.71812 9.21062C1.58456 8.97896 1.51023 8.71791 1.50174 8.45064C1.49324 8.18337 1.55083 7.91813 1.6694 7.67844C1.78798 7.43876 1.96387 7.23204 2.18148 7.07663C2.39908 6.92121 2.65168 6.8219 2.91687 6.7875L2.66687 6.35375C2.53538 6.12599 2.46114 5.86972 2.45051 5.60695C2.43989 5.34417 2.4932 5.08274 2.60587 4.84511C2.71854 4.60748 2.8872 4.40074 3.09737 4.24266C3.30754 4.08457 3.55294 3.97985 3.8125 3.9375C3.68231 3.57904 3.68235 3.1862 3.81261 2.82776C3.94286 2.46933 4.19504 2.16812 4.525 1.97687C4.82755 1.80283 5.17803 1.73063 5.52474 1.77092C5.87145 1.8112 6.19603 1.96185 6.45062 2.20062C6.60655 1.97553 6.81684 1.7935 7.06195 1.67142C7.30706 1.54934 7.57904 1.49118 7.85264 1.50234C8.12624 1.51351 8.39258 1.59362 8.62693 1.73526C8.86128 1.8769 9.05604 2.07546 9.19312 2.3125L9.94312 3.61188C10.1055 3.39924 10.3179 3.22999 10.5614 3.11915C10.8049 3.00831 11.072 2.95931 11.339 2.9765C11.606 2.99369 11.8646 3.07654 12.0919 3.21769C12.3192 3.35884 12.5081 3.55392 12.6419 3.78562L13.8294 5.84562ZM7.245 3.4375L7.61562 4.07937C7.73937 4.19239 7.8448 4.32397 7.92812 4.46938L8.67812 5.76625C8.92463 5.4461 9.28079 5.2284 9.67812 5.155L8.3275 2.8125C8.24461 2.66895 8.1081 2.56421 7.94799 2.52131C7.78789 2.47841 7.6173 2.50087 7.47375 2.58375C7.3302 2.66663 7.22546 2.80314 7.18256 2.96325C7.13966 3.12336 7.16212 3.29395 7.245 3.4375ZM4.79625 3.69688L5.16687 4.33938L5.18687 4.3575C5.30813 4.18193 5.46286 4.03204 5.64219 3.91642C5.82152 3.8008 6.02191 3.72173 6.23187 3.68375L5.87875 3.07188C5.81695 2.96481 5.7248 2.87848 5.61393 2.82379C5.50307 2.7691 5.37848 2.74852 5.25592 2.76464C5.13336 2.78076 5.01833 2.83287 4.92539 2.91437C4.83244 2.99587 4.76575 3.1031 4.73375 3.2225C4.71222 3.30177 4.70666 3.38452 4.71739 3.46596C4.72812 3.54739 4.75492 3.62589 4.79625 3.69688ZM12.0994 11.5356C12.2367 11.0283 12.272 10.4988 12.2033 9.97776C12.1347 9.45671 11.9634 8.95443 11.6994 8.5L10.5119 6.44312C10.4311 6.30466 10.3002 6.20252 10.1463 6.15782C9.99235 6.11312 9.82712 6.12928 9.68476 6.20295C9.5424 6.27662 9.43378 6.40217 9.38136 6.55365C9.32894 6.70514 9.33673 6.87097 9.40312 7.01687L10.1169 8.25C10.1832 8.36495 10.2011 8.50154 10.1667 8.62971C10.1323 8.75788 10.0484 8.86713 9.93343 8.93344C9.81848 8.99974 9.68189 9.01766 9.55372 8.98326C9.42555 8.94886 9.3163 8.86495 9.25 8.75L7.0625 4.97062C6.97668 4.83473 6.8418 4.73712 6.68589 4.69807C6.52998 4.65903 6.36502 4.68154 6.22528 4.76095C6.08554 4.84035 5.98176 4.97054 5.9355 5.12446C5.88924 5.27839 5.90406 5.44422 5.97687 5.5875L7.51625 8.25C7.55115 8.30692 7.57431 8.37025 7.58434 8.43626C7.59437 8.50227 7.59109 8.56962 7.57467 8.63434C7.55825 8.69906 7.52904 8.75984 7.48875 8.81308C7.44846 8.86633 7.39792 8.91097 7.34011 8.94436C7.28229 8.97776 7.21837 8.99924 7.15212 9.00753C7.08586 9.01582 7.01862 9.01076 6.95436 8.99265C6.89009 8.97453 6.83011 8.94373 6.77794 8.90205C6.72577 8.86038 6.68248 8.80868 6.65062 8.75L4.615 5.22875C4.57426 5.1571 4.51975 5.09421 4.4546 5.04371C4.38946 4.99321 4.31497 4.95609 4.23543 4.93449C4.15588 4.9129 4.07285 4.90725 3.99111 4.91787C3.90938 4.9285 3.83055 4.95518 3.75917 4.9964C3.68778 5.03761 3.62526 5.09254 3.57519 5.15801C3.52512 5.22349 3.4885 5.29822 3.46743 5.37791C3.44637 5.4576 3.44127 5.54066 3.45243 5.62233C3.4636 5.70399 3.49081 5.78264 3.5325 5.85375L5.7825 9.75125C5.81533 9.80813 5.83663 9.87092 5.8452 9.93603C5.85376 10.0011 5.84942 10.0673 5.83241 10.1307C5.81541 10.1942 5.78608 10.2536 5.74609 10.3057C5.7061 10.3578 5.65625 10.4015 5.59937 10.4344C5.54249 10.4672 5.4797 10.4885 5.41459 10.4971C5.34948 10.5056 5.28332 10.5013 5.21988 10.4843C5.15645 10.4673 5.09698 10.438 5.04489 10.398C4.99279 10.358 4.94908 10.3081 4.91625 10.2513L3.66625 8.08625C3.58278 7.94387 3.44638 7.84029 3.28682 7.7981C3.12726 7.75592 2.95749 7.77856 2.81456 7.86108C2.67163 7.9436 2.56715 8.07931 2.5239 8.23858C2.48066 8.39786 2.50217 8.56778 2.58375 8.71125L4.77125 12.5006C5.16679 13.1859 5.75667 13.7384 6.46627 14.0884C7.17587 14.4383 7.97331 14.57 8.75774 14.4667C9.54218 14.3634 10.2784 14.0298 10.8732 13.508C11.468 12.9863 11.8947 12.2999 12.0994 11.5356ZM12.9631 6.34312L11.7756 4.28625C11.6922 4.14387 11.5558 4.04029 11.3962 3.9981C11.2366 3.95592 11.0669 3.97856 10.9239 4.06108C10.781 4.1436 10.6765 4.27931 10.6333 4.43858C10.59 4.59786 10.6115 4.76778 10.6931 4.91125L11.0625 5.55188C11.1862 5.6654 11.2916 5.79738 11.375 5.94312L12.5625 8C12.8962 8.57667 13.1114 9.21411 13.1956 9.875C13.4313 9.30811 13.5329 8.69446 13.4926 8.08186C13.4523 7.46926 13.2711 6.87423 12.9631 6.34312Z" fill="black"/>
</svg>
