<svg width="16" height="16" viewBox="0 0 16 16" fill="none" xmlns="http://www.w3.org/2000/svg">
<path d="M10.5 1.5V0.5C10.5 0.367392 10.5527 0.240215 10.6465 0.146447C10.7402 0.0526784 10.8674 0 11 0C11.1326 0 11.2598 0.0526784 11.3536 0.146447C11.4473 0.240215 11.5 0.367392 11.5 0.5V1.5C11.5 1.63261 11.4473 1.75979 11.3536 1.85355C11.2598 1.94732 11.1326 2 11 2C10.8674 2 10.7402 1.94732 10.6465 1.85355C10.5527 1.75979 10.5 1.63261 10.5 1.5ZM12.7394 2.5625C12.7954 2.59675 12.8577 2.61961 12.9226 2.62979C12.9875 2.63997 13.0537 2.63726 13.1176 2.62182C13.1814 2.60638 13.2416 2.57851 13.2947 2.53981C13.3477 2.5011 13.3927 2.45232 13.4269 2.39625L13.9269 1.57687C13.9617 1.5208 13.985 1.4584 13.9956 1.39326C14.0062 1.32813 14.0037 1.26154 13.9884 1.19735C13.9731 1.13316 13.9453 1.07263 13.9065 1.01925C13.8677 0.965878 13.8187 0.920709 13.7624 0.886353C13.706 0.851997 13.6434 0.829132 13.5782 0.819078C13.513 0.809024 13.4464 0.811979 13.3824 0.827773C13.3183 0.843567 13.258 0.871887 13.2049 0.9111C13.1518 0.950314 13.1071 0.999645 13.0731 1.05625L12.5731 1.875C12.5389 1.93102 12.516 1.99323 12.5057 2.0581C12.4955 2.12297 12.4982 2.18921 12.5135 2.25306C12.5289 2.3169 12.5567 2.37708 12.5954 2.43018C12.634 2.48327 12.6827 2.52824 12.7388 2.5625H12.7394ZM15.7044 3.34938C15.6637 3.22328 15.5746 3.1185 15.4567 3.05803C15.3389 2.99756 15.2018 2.98636 15.0756 3.02688L14.1381 3.33C14.0245 3.36634 13.9276 3.44213 13.8649 3.54368C13.8022 3.64523 13.778 3.76584 13.7964 3.88373C13.8149 4.00162 13.875 4.109 13.9657 4.18649C14.0565 4.26398 14.1719 4.30645 14.2913 4.30625C14.3435 4.3061 14.3953 4.29788 14.445 4.28188L15.3825 3.97875C15.4452 3.95849 15.5032 3.92605 15.5533 3.88329C15.6034 3.84053 15.6446 3.78829 15.6745 3.72958C15.7043 3.67086 15.7223 3.60683 15.7273 3.54115C15.7323 3.47547 15.7243 3.40945 15.7038 3.34687L15.7044 3.34938ZM13.8294 5.84562C14.3821 6.79658 14.6046 7.90372 14.4622 8.99439C14.3197 10.0851 13.8203 11.0979 13.0419 11.875C12.7718 12.8188 12.2299 13.6622 11.4837 14.3C10.7376 14.9379 9.82014 15.342 8.84584 15.462C7.87155 15.5819 6.88349 15.4125 6.00487 14.9746C5.12625 14.5368 4.39595 13.8501 3.90501 13L1.71751 9.21062C1.58395 8.97896 1.50962 8.71791 1.50113 8.45064C1.49263 8.18337 1.55022 7.91813 1.66879 7.67844C1.78737 7.43876 1.96326 7.23204 2.18087 7.07663C2.39847 6.92121 2.65107 6.8219 2.91626 6.7875L2.66626 6.35375C2.53477 6.12595 2.46054 5.86963 2.44995 5.60681C2.43936 5.344 2.49272 5.08254 2.60546 4.84489C2.71819 4.60725 2.88693 4.40052 3.09718 4.24247C3.30743 4.08442 3.5529 3.97977 3.81251 3.9375C3.68227 3.57911 3.68222 3.18633 3.81236 2.8279C3.9425 2.46947 4.19454 2.16822 4.52439 1.97687C4.8268 1.80234 5.17739 1.72986 5.52422 1.77016C5.87105 1.81046 6.19567 1.9614 6.45001 2.20062C6.60594 1.97553 6.81623 1.7935 7.06134 1.67142C7.30645 1.54934 7.57843 1.49118 7.85203 1.50234C8.12563 1.51351 8.39197 1.59362 8.62632 1.73526C8.86067 1.8769 9.05543 2.07546 9.19251 2.3125L9.94251 3.61188C10.1049 3.39938 10.3173 3.23025 10.5607 3.11949C10.8041 3.00874 11.0712 2.95978 11.3381 2.97697C11.605 2.99416 11.8635 3.07696 12.0907 3.21802C12.3179 3.35908 12.5068 3.55405 12.6406 3.78562L13.8294 5.84562ZM12.0994 11.5381C12.2369 11.0304 12.2723 10.5005 12.2037 9.979C12.135 9.45751 11.9636 8.95481 11.6994 8.5L10.5119 6.44312C10.432 6.30295 10.301 6.19911 10.1463 6.15333C9.99153 6.10754 9.82511 6.12337 9.68179 6.19749C9.53848 6.27161 9.42938 6.39828 9.37732 6.551C9.32527 6.70372 9.3343 6.87066 9.40251 7.01687L10.1163 8.25C10.1491 8.30688 10.1704 8.36967 10.179 8.43478C10.1875 8.49989 10.1832 8.56606 10.1662 8.62949C10.1492 8.69292 10.1198 8.75239 10.0799 8.80448C10.0399 8.85658 9.99001 8.90029 9.93314 8.93312C9.87626 8.96595 9.81347 8.98726 9.74836 8.99583C9.68324 9.00439 9.61708 9.00005 9.55365 8.98304C9.49021 8.96604 9.43075 8.93671 9.37865 8.89672C9.32655 8.85673 9.28284 8.80688 9.25001 8.75L7.06251 4.97062C6.97669 4.83473 6.84182 4.73712 6.68591 4.69807C6.53 4.65903 6.36504 4.68154 6.22529 4.76095C6.08555 4.84035 5.98177 4.97054 5.93551 5.12446C5.88925 5.27839 5.90407 5.44422 5.97689 5.5875L7.51564 8.25C7.55054 8.30692 7.5737 8.37025 7.58373 8.43626C7.59376 8.50227 7.59048 8.56962 7.57406 8.63434C7.55764 8.69906 7.52843 8.75984 7.48814 8.81308C7.44785 8.86633 7.39731 8.91097 7.33949 8.94436C7.28168 8.97776 7.21776 8.99924 7.15151 9.00753C7.08525 9.01582 7.01801 9.01076 6.95375 8.99265C6.88948 8.97453 6.8295 8.94373 6.77733 8.90205C6.72516 8.86038 6.68187 8.80868 6.65001 8.75L4.61439 5.22875C4.57365 5.1571 4.51914 5.09421 4.45399 5.04371C4.38885 4.99321 4.31436 4.95609 4.23482 4.93449C4.15527 4.9129 4.07224 4.90725 3.9905 4.91787C3.90877 4.9285 3.82994 4.95518 3.75856 4.9964C3.68717 5.03761 3.62465 5.09254 3.57458 5.15801C3.52451 5.22349 3.48789 5.29822 3.46682 5.37791C3.44576 5.4576 3.44066 5.54066 3.45182 5.62233C3.46299 5.70399 3.4902 5.78264 3.53189 5.85375L4.53189 7.58625L5.78189 9.75125C5.81472 9.80813 5.83602 9.87092 5.84459 9.93603C5.85315 10.0011 5.84881 10.0673 5.8318 10.1307C5.8148 10.1942 5.78547 10.2536 5.74548 10.3057C5.70549 10.3578 5.65564 10.4015 5.59876 10.4344C5.54188 10.4672 5.47909 10.4885 5.41398 10.4971C5.34887 10.5056 5.28271 10.5013 5.21927 10.4843C5.15584 10.4673 5.09637 10.438 5.04428 10.398C4.99218 10.358 4.94847 10.3081 4.91564 10.2513L3.66564 8.08625C3.58217 7.94387 3.44577 7.84029 3.28621 7.7981C3.12665 7.75592 2.95688 7.77856 2.81395 7.86108C2.67102 7.9436 2.56653 8.07931 2.52329 8.23858C2.48005 8.39786 2.50156 8.56778 2.58314 8.71125L4.77064 12.5006C5.16618 13.1859 5.75606 13.7384 6.46566 14.0884C7.17526 14.4383 7.9727 14.57 8.75713 14.4667C9.54157 14.3634 10.2777 14.0298 10.8726 13.508C11.4674 12.9863 11.8941 12.2999 12.0988 11.5356L12.0994 11.5381Z" fill="black"/>
</svg>
