<svg width="16" height="16" viewBox="0 0 16 16" fill="none" xmlns="http://www.w3.org/2000/svg">
<path d="M15 8C15 11.866 11.866 15 8 15C4.13401 15 1 11.866 1 8C1 4.13401 4.13401 1 8 1C11.866 1 15 4.13401 15 8Z" fill="#424242"/>
<path d="M11.345 4.66036C11.2958 4.61114 11.2375 4.57209 11.1733 4.54544C11.109 4.5188 11.0402 4.50508 10.9706 4.50508C10.9011 4.50508 10.8322 4.5188 10.768 4.54544C10.7038 4.57209 10.6454 4.61114 10.5963 4.66036L8 7.25137L5.40368 4.65505C5.35452 4.60589 5.29617 4.5669 5.23194 4.5403C5.16772 4.51369 5.09888 4.5 5.02936 4.5C4.95985 4.5 4.89101 4.51369 4.82678 4.5403C4.76256 4.5669 4.7042 4.60589 4.65505 4.65505C4.60589 4.7042 4.5669 4.76256 4.5403 4.82678C4.51369 4.89101 4.5 4.95985 4.5 5.02936C4.5 5.09888 4.51369 5.16772 4.5403 5.23194C4.5669 5.29617 4.60589 5.35452 4.65505 5.40368L7.25137 8L4.65505 10.5963C4.60589 10.6455 4.5669 10.7038 4.5403 10.7681C4.51369 10.8323 4.5 10.9011 4.5 10.9706C4.5 11.0402 4.51369 11.109 4.5403 11.1732C4.5669 11.2374 4.60589 11.2958 4.65505 11.345C4.7042 11.3941 4.76256 11.4331 4.82678 11.4597C4.89101 11.4863 4.95985 11.5 5.02936 11.5C5.09888 11.5 5.16772 11.4863 5.23194 11.4597C5.29617 11.4331 5.35452 11.3941 5.40368 11.345L8 8.74863L10.5963 11.345C10.6455 11.3941 10.7038 11.4331 10.7681 11.4597C10.8323 11.4863 10.9011 11.5 10.9706 11.5C11.0402 11.5 11.109 11.4863 11.1732 11.4597C11.2374 11.4331 11.2958 11.3941 11.345 11.345C11.3941 11.2958 11.4331 11.2374 11.4597 11.1732C11.4863 11.109 11.5 11.0402 11.5 10.9706C11.5 10.9011 11.4863 10.8323 11.4597 10.7681C11.4331 10.7038 11.3941 10.6455 11.345 10.5963L8.74863 8L11.345 5.40368C11.5467 5.20192 11.5467 4.86212 11.345 4.66036Z" fill="white"/>
</svg>
