<svg width="16" height="16" viewBox="0 0 16 16" fill="none" xmlns="http://www.w3.org/2000/svg">
<g clip-path="url(#clip0_1_4218)">
<path fill-rule="evenodd" clip-rule="evenodd" d="M0.575737 0.57573C0.810052 0.341415 1.18995 0.341415 1.42427 0.57573L8 7.15147L14.5757 0.57573C14.8101 0.341415 15.19 0.341415 15.4243 0.57573C15.6586 0.810044 15.6586 1.18994 15.4243 1.42426L8.84853 7.99999L15.4243 14.5757C15.6586 14.81 15.6586 15.1899 15.4243 15.4243C15.19 15.6586 14.8101 15.6586 14.5757 15.4243L8 8.84852L1.42427 15.4243C1.18995 15.6586 0.810052 15.6586 0.575737 15.4243C0.341423 15.1899 0.341423 14.81 0.575737 14.5757L7.15147 7.99999L0.575737 1.42426C0.341423 1.18994 0.341423 0.810044 0.575737 0.57573Z" fill="black"/>
</g>
<defs>
<clipPath id="clip0_1_4218">
<rect width="16" height="16" fill="white"/>
</clipPath>
</defs>
</svg>
