<svg width="16" height="16" viewBox="0 0 16 16" fill="none" xmlns="http://www.w3.org/2000/svg">
<path fill-rule="evenodd" clip-rule="evenodd" d="M11.613 1C11.9506 0.999896 12.2854 1.06605 12.5986 1.19528C12.9119 1.32453 13.1981 1.51467 13.4402 1.75608L14.2315 2.54601C14.7204 3.03361 15 3.70038 15 4.40139C15 5.10241 14.7204 5.76918 14.2315 6.25677L6.21947 14.2429C5.73089 14.7308 5.0735 15 4.39301 15H1.67472C1.30208 15 1 14.6875 1 14.3019V11.6108C0.999905 10.9099 1.27931 10.243 1.76805 9.7554L9.78622 1.75722C10.0282 1.51572 10.3144 1.32532 10.6275 1.1959C10.9406 1.06647 11.2754 1.0001 11.613 1ZM12.0987 2.49207C11.9456 2.42887 11.7806 2.39607 11.6134 2.39612C11.4462 2.39617 11.2813 2.42908 11.1282 2.49237C10.9751 2.55564 10.8377 2.64769 10.7231 2.76203L2.7048 10.7603C2.47408 10.9906 2.34939 11.297 2.34944 11.6105V13.6039H4.39301C4.73135 13.6039 5.05062 13.4698 5.28231 13.2384L13.295 5.25159C13.5257 5.02139 13.6506 4.71496 13.6506 4.40139C13.6506 4.08777 13.5258 3.78141 13.295 3.5512L12.504 2.76149C12.3893 2.64722 12.2518 2.55525 12.0987 2.49207Z" fill="black"/>
</svg>
