<svg width="26" height="26" viewBox="0 0 26 26" fill="none" xmlns="http://www.w3.org/2000/svg">
<g clip-path="url(#clip0_1_4230)">
<path d="M5.71777 11.0742L5.21777 5.07422L13.7178 4.57422L21.2178 5.57422L14.7178 10.5742L7.21777 15.0742L5.71777 11.0742Z" fill="#FF1C1C"/>
<path d="M13.8854 24.3695L12.8157 24.26M12.8157 24.26L10.7117 24.0446M12.8157 24.26C15.3521 23.9589 17.8773 23.5374 20.4286 23.4787C21.155 23.462 20.906 23.2072 20.3412 23.0755C20.0369 23.0046 19.7275 22.9524 19.4156 22.9133M12.8157 24.26C11.724 24.3895 10.6302 24.4968 9.53135 24.5432C8.91369 24.5692 8.01496 24.5859 7.37954 24.5803C7.07465 24.5776 6.57776 24.6123 6.26688 24.4865C6.01357 24.384 6.20419 24.0896 6.35365 23.9926C6.36731 23.9837 6.3811 23.975 6.39503 23.9664M10.7117 24.0446L8.15478 23.7828M10.7117 24.0446C13.6363 23.9115 16.5274 23.3921 19.4156 22.9133M10.7117 24.0446C10.4875 24.0548 10.2631 24.0627 10.0385 24.0682C8.85784 24.0969 7.66874 24.0892 6.49226 23.9746L6.48302 23.9737C6.45575 23.971 6.42842 23.9684 6.40103 23.9656M8.15478 23.7828L7.06202 23.6709M8.15478 23.7828C9.66751 23.5972 11.1715 23.333 12.681 23.1279C13.646 22.9969 14.6113 22.8808 15.5778 22.7754M8.15478 23.7828C7.64996 23.8447 7.14416 23.8978 6.63688 23.9371C6.60185 23.9398 6.51722 23.9513 6.40103 23.9656M7.06202 23.6709L5.68421 23.5298M7.06202 23.6709C6.82513 23.7483 6.59744 23.8419 6.39689 23.9652M7.06202 23.6709C7.43472 23.5491 7.83022 23.4678 8.17873 23.3749C8.40469 23.3147 8.63111 23.2565 8.85794 23.2M5.68421 23.5298C5.55911 23.5507 5.43634 23.579 5.32167 23.6214C5.16956 23.6777 5.25376 23.7132 5.35241 23.7533C5.68259 23.8874 6.04362 23.9302 6.39689 23.9652M5.68421 23.5298C5.87452 23.4981 6.07022 23.4836 6.25098 23.4631C7.11839 23.3648 7.98819 23.2784 8.85794 23.2M5.68421 23.5298L4.77632 23.4369M4.77632 23.4369C4.65691 23.4766 4.55748 23.542 4.54473 23.6666C4.49287 24.1731 5.81982 24.0371 6.39503 23.9664M4.77632 23.4369C4.89191 23.3984 5.02623 23.384 5.11881 23.3633C5.87467 23.1945 6.65712 23.1412 7.4207 22.9997C8.14728 22.865 8.85341 22.7058 9.59207 22.7715C9.90396 22.7992 10.2299 22.8163 10.5537 22.8097M4.77632 23.4369L3.20233 23.2757C3.13165 23.2685 2.90958 23.2458 3.04055 23.1143C3.12047 23.0341 3.28748 22.9827 3.37857 22.9559C4.07174 22.7515 4.79555 22.6175 5.50039 22.4652C7.93892 21.938 10.3901 21.4802 12.8813 21.2901C15.1685 21.1155 17.4853 21.1339 19.7679 21.3676L19.7875 21.3696C20.6415 21.4571 21.6121 21.5564 22.3492 22.0462C23.0943 22.5414 21.5998 22.5655 21.4122 22.5939C21.1356 22.6358 20.8591 22.679 20.5826 22.723M20.5826 22.723C20.1936 22.785 19.8046 22.8488 19.4156 22.9133M20.5826 22.723C20.4281 22.6217 20.2764 22.5077 20.1329 22.4388C19.6611 22.2123 19.2394 22.1458 18.7065 22.1479C18.5953 22.1484 18.4842 22.1468 18.373 22.1439M20.5826 22.723C20.7394 22.8258 20.899 22.9154 21.0558 22.9315C21.1746 22.9437 21.2963 22.9491 21.4141 22.9682C21.6422 23.0052 21.2483 23.1551 21.1736 23.1567C21.0631 23.1592 20.1478 23.0339 20.5543 22.8802M19.4156 22.9133C18.7303 22.8273 18.0328 22.8046 17.35 22.7854C16.7593 22.7688 16.1685 22.7664 15.5778 22.7754M6.40103 23.9656L6.39689 23.9652M6.40103 23.9656C6.39904 23.9659 6.39704 23.9661 6.39503 23.9664M6.39689 23.9652L6.39503 23.9664M8.85794 23.2C9.04954 23.1828 9.24114 23.1659 9.43271 23.1493C11.4751 22.973 13.526 22.8063 15.5778 22.7754M8.85794 23.2C9.42091 23.0599 9.98641 22.9307 10.5537 22.8097M15.5778 22.7754C16.4948 22.6753 17.4128 22.5847 18.3326 22.4998C19.2091 22.4189 18.89 22.2586 18.373 22.1439M10.5537 22.8097C11.1528 22.682 11.7539 22.5635 12.3561 22.4511C12.5814 22.409 12.8095 22.3669 13.0399 22.3259M10.5537 22.8097C10.8263 22.8042 11.0975 22.7819 11.3577 22.735C11.9261 22.6326 12.4772 22.456 13.0399 22.3259M13.0399 22.3259C13.3866 22.2641 13.7384 22.205 14.0931 22.1529M13.0399 22.3259C13.1952 22.2899 13.3513 22.2575 13.509 22.2312C13.7049 22.1985 13.8994 22.1729 14.0931 22.1529M14.0931 22.1529C15.4897 21.9475 16.9312 21.8499 18.2825 22.1246C18.3132 22.1309 18.3434 22.1373 18.373 22.1439M14.0931 22.1529C14.91 22.0684 15.7117 22.0827 16.5458 22.0755C17.1557 22.0703 17.7643 22.1277 18.373 22.1439M4.71695 3.48778C4.32468 3.48778 4.12831 3.46041 3.84256 3.14291C3.66859 2.94962 3.71691 2.62636 3.86428 2.43688C4.04902 2.19936 4.29416 1.975 4.49971 1.73899C4.57182 1.65621 4.76067 1.37965 4.86359 1.55977C4.9186 1.65604 5.1432 1.70739 5.24376 1.77701C5.52705 1.97313 5.85501 2.25387 6.08285 2.5102C6.31064 2.76646 6.285 2.93662 6.18333 3.21623C6.11203 3.41228 5.76512 3.39002 5.60764 3.39002C5.32288 3.39002 5.18883 3.43264 5.01023 3.1945M4.961 3.53711C4.961 4.64296 4.97015 5.74871 5.04246 6.85275C5.21762 9.52674 5.88389 12.185 6.64733 14.7467C6.99494 15.9132 7.4066 17.0592 7.74711 18.228C7.82332 18.4896 7.92574 18.7401 8.04039 18.9829C8.24418 19.4145 8.37469 19.8862 8.60521 20.3054C8.75857 20.5842 8.83882 20.8777 8.95823 21.1716C8.98819 21.2454 9.12945 21.6713 9.11573 21.6713M5.25446 4.66078H15.2855C16.6952 4.66078 18.0894 4.61588 19.4837 4.84543C19.8703 4.90907 20.2468 4.99612 20.6297 5.07625C20.9068 5.13426 21.2006 5.28838 21.4823 5.2962C21.5924 5.29926 21.6615 5.29582 21.6045 5.42112C21.4761 5.70356 21.2404 5.83301 20.9935 6.01853C19.608 7.05968 18.2918 8.18447 16.8442 9.14408C14.8098 10.4928 12.5936 11.5664 10.4954 12.8127C10.2406 12.964 9.98365 13.1247 9.72418 13.2662C9.39561 13.4454 9.1096 13.8918 8.87151 14.1813C8.77357 14.3005 8.73576 14.3169 8.59996 14.3416C8.35389 14.3863 8.08621 14.7674 7.90479 14.9254C7.88411 14.9434 7.5029 15.2915 7.5029 15.2187" stroke="black" stroke-width="1.25" stroke-linecap="round"/>
</g>
<defs>
<clipPath id="clip0_1_4230">
<rect width="26" height="25" fill="white" transform="translate(0 0.5)"/>
</clipPath>
</defs>
</svg>
