<svg width="108" height="24" viewBox="0 0 108 24" fill="none" xmlns="http://www.w3.org/2000/svg">
<path d="M7.66737 22.9091C6.22772 22.9091 4.92556 22.5859 3.76089 21.9394C2.61241 21.2929 1.69847 20.3475 1.01908 19.103C0.339694 17.8424 0 16.3394 0 14.5939C0 12.1374 0.444837 9.97172 1.33451 8.09697C2.24036 6.22222 3.46164 4.77576 4.99835 3.75758C6.55123 2.73939 8.26588 2.2303 10.1423 2.2303C11.5819 2.2303 12.876 2.55354 14.0245 3.2C15.1892 3.84647 16.1112 4.8 16.7906 6.06061C17.47 7.30505 17.8097 8.8 17.8097 10.5455C17.8097 13.002 17.3567 15.1677 16.4509 17.0424C15.5612 18.9172 14.3399 20.3636 12.787 21.3818C11.2503 22.4 9.54377 22.9091 7.66737 22.9091ZM7.91001 20.0485C9.17173 20.0485 10.2798 19.6606 11.2342 18.8848C12.2047 18.1091 12.9488 17.0343 13.4664 15.6606C13.9841 14.2707 14.2429 12.703 14.2429 10.9576C14.2429 9.03434 13.8385 7.5798 13.0297 6.59394C12.2209 5.59192 11.1775 5.09091 9.89964 5.09091C8.6541 5.09091 7.55414 5.47879 6.59976 6.25455C5.64538 7.01414 4.90129 8.08889 4.36749 9.47879C3.83368 10.8525 3.56678 12.4202 3.56678 14.1818C3.56678 16.1051 3.97118 17.5677 4.77997 18.5697C5.58877 19.5556 6.63211 20.0485 7.91001 20.0485Z" fill="black"/>
<path d="M21.2036 8.36364C20.8477 8.36364 20.5646 8.28283 20.3543 8.12121C20.144 7.9596 20.0389 7.70101 20.0389 7.34546C20.0389 7.2 20.0632 7.0303 20.1117 6.83636C20.2896 6.09293 20.419 5.40606 20.4999 4.77576C20.597 4.14545 20.6455 3.44242 20.6455 2.66667C20.6455 1.85859 20.8315 1.23636 21.2036 0.8C21.5918 0.363637 22.0851 0.145456 22.6836 0.145456C23.266 0.145456 23.7027 0.307072 23.9939 0.630304C24.3012 0.937374 24.4549 1.35758 24.4549 1.89091C24.4549 2.45657 24.2851 3.20808 23.9454 4.14545C23.6057 5.08283 23.1932 5.99596 22.7079 6.88485C22.3844 7.48283 22.1256 7.87879 21.9315 8.07273C21.7535 8.26667 21.5109 8.36364 21.2036 8.36364Z" fill="black"/>
<path d="M28.2238 23.4424C27.3826 23.4424 26.7356 23.2485 26.2827 22.8606C25.8459 22.4727 25.6275 22.0364 25.6275 21.5515C25.6275 21.1313 25.7812 20.7677 26.0885 20.4606C26.3959 20.1535 26.8488 20 27.4473 20C27.6576 20 27.9002 20.0242 28.1752 20.0727C28.4664 20.1051 28.6848 20.1293 28.8304 20.1455C28.8142 19.7253 28.7171 19.3293 28.5392 18.9576C28.3774 18.5859 28.1671 18.2303 27.9083 17.8909C27.6495 17.5354 27.4069 17.2283 27.1804 16.9697C26.679 17.9232 26.1775 18.7152 25.6761 19.3455C25.1908 19.9758 24.657 20.5737 24.0746 21.1394C23.7835 21.4303 23.4761 21.5758 23.1526 21.5758C22.8938 21.5758 22.6835 21.4869 22.5218 21.3091C22.36 21.1152 22.2791 20.8808 22.2791 20.6061C22.2791 20.2828 22.3924 19.9838 22.6188 19.7091L22.9342 19.3212C23.8239 18.2222 24.4952 17.3172 24.9481 16.6061C25.2393 16.1374 25.5305 15.5798 25.8216 14.9333C26.129 14.2869 26.5253 13.4061 27.0106 12.2909C27.3179 11.5798 27.9569 11.2242 28.9274 11.2242C29.3803 11.2242 29.6958 11.2646 29.8737 11.3455C30.0516 11.4263 30.1406 11.5556 30.1406 11.7333C30.1406 11.8303 30.1082 11.9838 30.0435 12.1939C29.9788 12.404 29.8899 12.6141 29.7766 12.8242C29.4855 13.4061 29.3399 13.899 29.3399 14.303C29.3399 14.5455 29.4208 14.8121 29.5825 15.103C29.7605 15.3939 30.0274 15.7576 30.3832 16.1939C30.9009 16.8727 31.2891 17.4545 31.5479 17.9394C31.8229 18.4081 31.9604 18.9253 31.9604 19.4909C31.9604 20.1697 31.7986 20.8162 31.4751 21.4303C31.1678 22.0283 30.731 22.5131 30.1649 22.8848C29.5987 23.2566 28.9517 23.4424 28.2238 23.4424Z" fill="black"/>
<path d="M58.607 7.27273C58.607 8.64647 58.1217 9.83434 57.1512 10.8364C56.1806 11.8222 54.7652 12.5333 52.905 12.9697C53.9079 13.2444 54.6682 13.697 55.1858 14.3273C55.7034 14.9414 55.9622 15.6525 55.9622 16.4606C55.9622 17.7374 55.5578 18.8444 54.7491 19.7818C53.9564 20.7192 52.7918 21.4465 51.2551 21.9636C49.7184 22.4646 47.8662 22.7152 45.6986 22.7152C44.8899 22.7152 44.2428 22.6909 43.7575 22.6424C43.7414 23.0949 43.5473 23.4343 43.1752 23.6606C42.8032 23.8869 42.326 24 41.7436 24C41.1613 24 40.7569 23.8707 40.5304 23.6121C40.3202 23.3535 40.2312 22.9737 40.2635 22.4727C40.4091 20.2101 40.6922 17.8424 41.1128 15.3697C41.5334 12.8808 42.0672 10.4808 42.7142 8.1697C42.8274 7.76566 43.0539 7.48283 43.3936 7.32121C43.7333 7.1596 44.1781 7.07879 44.7281 7.07879C45.7148 7.07879 46.2082 7.35354 46.2082 7.90303C46.2082 8.12929 46.1597 8.38788 46.0626 8.67879C45.642 9.93939 45.2215 11.6525 44.8009 13.8182C44.3803 15.9677 44.0811 18.0202 43.9031 19.9758C44.6796 20.0404 45.3104 20.0727 45.7957 20.0727C48.0603 20.0727 49.7184 19.7495 50.7698 19.103C51.8374 18.4404 52.3712 17.6 52.3712 16.5818C52.3712 15.8707 52.0639 15.2727 51.4492 14.7879C50.8507 14.303 49.8397 14.0364 48.4162 13.9879C48.0927 13.9717 47.8662 13.8909 47.7368 13.7455C47.6074 13.6 47.5427 13.3657 47.5427 13.0424C47.5427 12.5737 47.6398 12.1939 47.8339 11.903C48.028 11.6121 48.3838 11.4586 48.9015 11.4424C50.05 11.4101 51.0852 11.2404 52.0072 10.9333C52.9454 10.6263 53.6814 10.198 54.2152 9.64849C54.7491 9.08283 55.016 8.42828 55.016 7.68485C55.016 6.74748 54.5549 6.01212 53.6329 5.47879C52.7109 4.92929 51.2955 4.65455 49.3867 4.65455C47.6559 4.65455 45.9817 4.88081 44.3641 5.33333C42.7465 5.7697 41.3716 6.32727 40.2393 7.00606C39.7217 7.31313 39.2849 7.46667 38.929 7.46667C38.6379 7.46667 38.4114 7.3697 38.2496 7.17576C38.1041 6.96566 38.0313 6.70707 38.0313 6.4C38.0313 5.99596 38.1122 5.64849 38.2739 5.35758C38.4518 5.06667 38.8643 4.73535 39.5114 4.36364C40.8701 3.58788 42.4635 2.98182 44.2913 2.54545C46.1192 2.10909 47.9875 1.89091 49.8963 1.89091C52.8241 1.89091 55.0079 2.38384 56.4475 3.3697C57.8872 4.35556 58.607 5.65657 58.607 7.27273Z" fill="black"/>
<path d="M60.2962 22.9091C59.5683 22.9091 58.9698 22.5778 58.5007 21.9152C58.0477 21.2364 57.8213 20.396 57.8213 19.3939C57.8213 18.1818 57.9021 17.0747 58.0639 16.0727C58.2257 15.0545 58.4926 13.9798 58.8646 12.8485C59.0264 12.3636 59.2528 12.0162 59.544 11.8061C59.8352 11.596 60.2962 11.4909 60.927 11.4909C61.2829 11.4909 61.5255 11.5475 61.655 11.6606C61.8005 11.7737 61.8733 11.9434 61.8733 12.1697C61.8733 12.299 61.7844 12.7354 61.6064 13.4788C61.4447 14.0768 61.3153 14.6182 61.2182 15.103C60.8947 16.8 60.7329 17.9313 60.7329 18.497C60.7329 18.8364 60.7734 19.0788 60.8542 19.2242C60.9351 19.3535 61.0645 19.4182 61.2425 19.4182C61.4851 19.4182 61.7844 19.1758 62.1402 18.6909C62.5123 18.2061 62.9005 17.4707 63.3049 16.4848C63.7255 15.499 64.1299 14.2869 64.5181 12.8485C64.6475 12.3636 64.8416 12.0162 65.1004 11.8061C65.3754 11.596 65.7798 11.4909 66.3136 11.4909C66.6857 11.4909 66.9445 11.5394 67.09 11.6364C67.2356 11.7172 67.3084 11.8788 67.3084 12.1212C67.3084 12.5253 67.1062 13.6323 66.7018 15.4424C66.2489 17.5111 66.0224 18.7879 66.0224 19.2727C66.0224 19.5798 66.0871 19.8222 66.2166 20C66.346 20.1616 66.5158 20.2424 66.7261 20.2424C67.0496 20.2424 67.4297 20.0485 67.8665 19.6606C68.3194 19.2566 68.9179 18.6101 69.662 17.7212C69.8561 17.4949 70.0745 17.3818 70.3171 17.3818C70.5274 17.3818 70.6892 17.4788 70.8024 17.6727C70.9318 17.8667 70.9965 18.1333 70.9965 18.4727C70.9965 19.1192 70.8428 19.6202 70.5355 19.9758C69.84 20.8323 69.0878 21.5354 68.279 22.0849C67.4864 22.6343 66.5805 22.9091 65.5614 22.9091C64.785 22.9091 64.2107 22.6101 63.8387 22.0121C63.4828 21.4141 63.3049 20.5737 63.3049 19.4909C63.0299 20.5899 62.6174 21.4384 62.0674 22.0364C61.5175 22.6182 60.927 22.9091 60.2962 22.9091Z" fill="black"/>
<path d="M73.1782 22.9091C71.5929 22.9091 70.3555 22.4646 69.4658 21.5758C68.5923 20.6707 68.1556 19.4828 68.1556 18.0121C68.1556 16.703 68.4144 15.5556 68.932 14.5697C69.4496 13.5838 70.1209 12.8242 70.9459 12.2909C71.7709 11.7576 72.6363 11.4909 73.5421 11.4909C74.4318 11.4909 75.1193 11.7576 75.6046 12.2909C76.106 12.8081 76.3568 13.4788 76.3568 14.303C76.3568 14.9818 76.2031 15.5556 75.8957 16.0242C75.6046 16.4929 75.2164 16.7273 74.7311 16.7273C74.4237 16.7273 74.173 16.6545 73.9789 16.5091C73.801 16.3636 73.712 16.1616 73.712 15.903C73.712 15.7899 73.7282 15.6606 73.7605 15.5152C73.7929 15.3697 73.8171 15.2646 73.8333 15.2C73.9142 14.9576 73.9546 14.7313 73.9546 14.5212C73.9546 14.3111 73.898 14.1495 73.7848 14.0364C73.6877 13.9232 73.5421 13.8667 73.348 13.8667C72.976 13.8667 72.6282 14.0364 72.3047 14.3758C71.9812 14.699 71.7224 15.1434 71.5282 15.7091C71.3341 16.2747 71.2371 16.897 71.2371 17.5758C71.2371 19.4505 72.054 20.3879 73.6877 20.3879C74.3509 20.3879 75.0627 20.1697 75.8229 19.7333C76.5994 19.2808 77.3597 18.6101 78.1037 17.7212C78.2979 17.4949 78.5162 17.3818 78.7589 17.3818C78.9692 17.3818 79.1309 17.4788 79.2441 17.6727C79.3736 17.8667 79.4383 18.1333 79.4383 18.4727C79.4383 19.0869 79.2846 19.5879 78.9772 19.9758C78.217 20.9131 77.303 21.6404 76.2354 22.1576C75.184 22.6586 74.1649 22.9091 73.1782 22.9091Z" fill="black"/>
<path d="M91.0161 17.3818C91.2264 17.3818 91.3881 17.4788 91.5014 17.6727C91.6308 17.8667 91.6955 18.1333 91.6955 18.4727C91.6955 19.1192 91.5418 19.6202 91.2345 19.9758C90.5065 20.8646 89.7705 21.5758 89.0264 22.1091C88.2823 22.6424 87.4008 22.9091 86.3817 22.9091C85.1361 22.9091 84.1332 22.5535 83.373 21.8424C82.6127 21.1313 82.2326 20.1859 82.2326 19.0061C82.2326 18.3758 82.5561 17.9232 83.2031 17.6485C83.9149 17.3414 84.4244 17.0182 84.7317 16.6788C85.0391 16.3232 85.1928 15.8949 85.1928 15.3939C85.1928 15.103 85.1281 14.8848 84.9986 14.7394C84.8854 14.5939 84.7398 14.5212 84.5619 14.5212C84.1252 14.5212 83.6399 14.8364 83.1061 15.4667C82.5884 16.097 82.1032 16.9131 81.6502 17.9152C81.1973 18.901 80.8414 19.9192 80.5826 20.9697C80.4047 21.7293 80.1944 22.2465 79.9518 22.5212C79.7253 22.7798 79.3614 22.9091 78.8599 22.9091C78.3585 22.9091 77.9864 22.7313 77.7438 22.3758C77.5173 22.004 77.3636 21.4384 77.2828 20.6788C77.2019 19.9192 77.1614 18.804 77.1614 17.3333C77.1614 14.8444 77.4122 12.2505 77.9136 9.55152C78.4312 6.85253 79.1834 4.5899 80.1701 2.76364C81.173 0.921212 82.3701 0 83.7612 0C84.5053 0 85.1038 0.323232 85.5567 0.969697C86.0258 1.6 86.2604 2.42424 86.2604 3.44242C86.2604 5.07475 85.7832 6.77172 84.8288 8.53333C83.8744 10.2788 82.3215 12.3232 80.1701 14.6667C80.1216 15.5071 80.0974 16.3717 80.0974 17.2606C80.8738 15.2404 81.7635 13.7778 82.7664 12.8727C83.7693 11.9515 84.7075 11.4909 85.581 11.4909C86.3898 11.4909 87.0368 11.7657 87.5221 12.3152C88.0235 12.8646 88.2743 13.5434 88.2743 14.3515C88.2743 15.2404 88.0478 16.0566 87.5949 16.8C87.142 17.5434 86.3655 18.2061 85.2655 18.7879C85.3303 19.2242 85.5244 19.5798 85.8479 19.8545C86.1876 20.1131 86.592 20.2424 87.0611 20.2424C87.5625 20.2424 88.0478 20.0485 88.5169 19.6606C88.986 19.2727 89.6007 18.6263 90.361 17.7212C90.5551 17.4949 90.7734 17.3818 91.0161 17.3818ZM83.2516 2.4C82.9605 2.4 82.637 2.8202 82.2811 3.66061C81.9252 4.48485 81.5774 5.60808 81.2378 7.0303C80.9142 8.43636 80.6473 9.97172 80.437 11.6364C81.44 10.4566 82.2649 9.17172 82.912 7.78182C83.5752 6.39192 83.9068 5.13131 83.9068 4C83.9068 3.48283 83.8502 3.08687 83.7369 2.81212C83.6237 2.53737 83.4619 2.4 83.2516 2.4Z" fill="black"/>
<path d="M100.076 17.3818C100.286 17.3818 100.448 17.4788 100.561 17.6727C100.691 17.8667 100.755 18.1333 100.755 18.4727C100.755 19.1192 100.602 19.6202 100.294 19.9758C99.6958 20.703 98.8466 21.3737 97.7466 21.9879C96.6629 22.602 95.4982 22.9091 94.2526 22.9091C92.5542 22.9091 91.2358 22.4485 90.2976 21.5273C89.3594 20.6061 88.8903 19.3455 88.8903 17.7455C88.8903 16.6303 89.1249 15.596 89.594 14.6424C90.0631 13.6727 90.7101 12.9051 91.5351 12.3394C92.3763 11.7737 93.3225 11.4909 94.374 11.4909C95.3122 11.4909 96.0643 11.7737 96.6305 12.3394C97.1967 12.8889 97.4797 13.6404 97.4797 14.5939C97.4797 15.7091 97.0753 16.6707 96.2665 17.4788C95.4739 18.2707 94.1232 18.901 92.2145 19.3697C92.6189 20.1131 93.3872 20.4848 94.5195 20.4848C95.2475 20.4848 96.0724 20.2343 96.9945 19.7333C97.9327 19.2162 98.7415 18.5455 99.4208 17.7212C99.615 17.4949 99.8333 17.3818 100.076 17.3818ZM93.9615 13.8667C93.363 13.8667 92.8534 14.2141 92.4329 14.9091C92.0285 15.604 91.8263 16.4444 91.8263 17.4303V17.4788C92.7806 17.2525 93.5328 16.9131 94.0828 16.4606C94.6328 16.0081 94.9078 15.4828 94.9078 14.8848C94.9078 14.5778 94.8188 14.3354 94.6409 14.1576C94.4791 13.9636 94.2526 13.8667 93.9615 13.8667Z" fill="black"/>
<path d="M102.298 13.7939C102.266 14.602 102.249 15.2323 102.249 15.6848C102.249 16.8485 102.306 17.7616 102.419 18.4242C102.549 19.0707 102.751 19.5394 103.026 19.8303C103.317 20.1051 103.713 20.2424 104.215 20.2424C104.474 20.2424 104.781 20.1616 105.137 20C105.493 19.8384 105.816 19.6283 106.107 19.3697C106.285 19.2081 106.463 19.1273 106.641 19.1273C106.835 19.1273 106.989 19.2404 107.102 19.4667C107.232 19.6768 107.296 19.9354 107.296 20.2424C107.296 20.5495 107.232 20.8485 107.102 21.1394C106.989 21.4303 106.811 21.6727 106.568 21.8667C105.727 22.5616 104.773 22.9091 103.705 22.9091C102.169 22.9091 101.044 22.2707 100.333 20.9939C99.6209 19.701 99.265 18.0202 99.265 15.9515C99.265 15.2404 99.2893 14.5212 99.3378 13.7939H98.3915C97.9062 13.7939 97.5746 13.7051 97.3967 13.5273C97.2349 13.3495 97.1541 13.0667 97.1541 12.6788C97.1541 11.7737 97.518 11.3212 98.2459 11.3212H99.629C99.904 9.54344 100.325 7.91919 100.891 6.44849C101.457 4.97778 102.136 3.80606 102.929 2.93333C103.738 2.06061 104.603 1.62424 105.525 1.62424C106.204 1.62424 106.738 1.92323 107.127 2.52121C107.515 3.11919 107.709 3.87071 107.709 4.77576C107.709 7.28081 106.657 9.46263 104.555 11.3212H107.272C107.531 11.3212 107.717 11.3778 107.83 11.4909C107.943 11.604 108 11.8141 108 12.1212C108 13.2364 107.086 13.7939 105.258 13.7939H102.298ZM104.87 3.95152C104.627 3.95152 104.352 4.25859 104.045 4.87273C103.754 5.47071 103.471 6.31111 103.196 7.39394C102.937 8.46061 102.719 9.64849 102.541 10.9576C103.495 10.1333 104.207 9.21212 104.676 8.19394C105.161 7.1596 105.404 6.22222 105.404 5.38182C105.404 4.42828 105.226 3.95152 104.87 3.95152Z" fill="black"/>
</svg>
