<svg width="90" height="24" viewBox="0 0 90 24" fill="none" xmlns="http://www.w3.org/2000/svg">
<path d="M2.1256 8.36364C1.76973 8.36364 1.48665 8.28283 1.27637 8.12121C1.06608 7.9596 0.960938 7.70101 0.960938 7.34546C0.960938 7.2 0.9852 7.0303 1.03373 6.83636C1.21166 6.09293 1.34107 5.40606 1.42195 4.77576C1.51901 4.14545 1.56753 3.44242 1.56753 2.66667C1.56753 1.85859 1.75356 1.23636 2.1256 0.8C2.51382 0.363637 3.00719 0.145456 3.6057 0.145456C4.18803 0.145456 4.62478 0.307072 4.91594 0.630304C5.22328 0.937374 5.37696 1.35758 5.37696 1.89091C5.37696 2.45657 5.20711 3.20808 4.86741 4.14545C4.52772 5.08283 4.11523 5.99596 3.62996 6.88485C3.30644 7.48283 3.04763 7.87879 2.85352 8.07273C2.67558 8.26667 2.43294 8.36364 2.1256 8.36364Z" fill="black"/>
<path d="M9.14581 23.4424C8.30467 23.4424 7.65763 23.2485 7.2047 22.8606C6.76796 22.4727 6.54958 22.0364 6.54958 21.5515C6.54958 21.1313 6.70325 20.7677 7.0106 20.4606C7.31794 20.1535 7.77086 20 8.36937 20C8.57965 20 8.82229 20.0242 9.09728 20.0727C9.38845 20.1051 9.60682 20.1293 9.75241 20.1455C9.73623 19.7253 9.63918 19.3293 9.46124 18.9576C9.29948 18.5859 9.0892 18.2303 8.83038 17.8909C8.57157 17.5354 8.32893 17.2283 8.10247 16.9697C7.60101 17.9232 7.09956 18.7152 6.59811 19.3455C6.11283 19.9758 5.57903 20.5737 4.9967 21.1394C4.70553 21.4303 4.39819 21.5758 4.07467 21.5758C3.81586 21.5758 3.60557 21.4869 3.44381 21.3091C3.28205 21.1152 3.20117 20.8808 3.20117 20.6061C3.20117 20.2828 3.3144 19.9838 3.54086 19.7091L3.8563 19.3212C4.74597 18.2222 5.41727 17.3172 5.8702 16.6061C6.16136 16.1374 6.45253 15.5798 6.74369 14.9333C7.05103 14.2869 7.44734 13.4061 7.93262 12.2909C8.23996 11.5798 8.87891 11.2242 9.84946 11.2242C10.3024 11.2242 10.6178 11.2646 10.7958 11.3455C10.9737 11.4263 11.0627 11.5556 11.0627 11.7333C11.0627 11.8303 11.0303 11.9838 10.9656 12.1939C10.9009 12.404 10.8119 12.6141 10.6987 12.8242C10.4075 13.4061 10.2619 13.899 10.2619 14.303C10.2619 14.5455 10.3428 14.8121 10.5046 15.103C10.6825 15.3939 10.9494 15.7576 11.3053 16.1939C11.8229 16.8727 12.2111 17.4545 12.47 17.9394C12.7449 18.4081 12.8824 18.9253 12.8824 19.4909C12.8824 20.1697 12.7207 20.8162 12.3972 21.4303C12.0898 22.0283 11.6531 22.5131 11.0869 22.8848C10.5208 23.2566 9.87373 23.4424 9.14581 23.4424Z" fill="black"/>
<path d="M39.5291 7.27273C39.5291 8.64647 39.0438 9.83434 38.0732 10.8364C37.1027 11.8222 35.6873 12.5333 33.8271 12.9697C34.83 13.2444 35.5902 13.697 36.1079 14.3273C36.6255 14.9414 36.8843 15.6525 36.8843 16.4606C36.8843 17.7374 36.4799 18.8444 35.6711 19.7818C34.8785 20.7192 33.7138 21.4465 32.1771 21.9636C30.6404 22.4646 28.7883 22.7152 26.6207 22.7152C25.8119 22.7152 25.1649 22.6909 24.6796 22.6424C24.6634 23.0949 24.4693 23.4343 24.0973 23.6606C23.7252 23.8869 23.248 24 22.6657 24C22.0834 24 21.679 23.8707 21.4525 23.6121C21.2422 23.3535 21.1532 22.9737 21.1856 22.4727C21.3312 20.2101 21.6143 17.8424 22.0348 15.3697C22.4554 12.8808 22.9892 10.4808 23.6362 8.1697C23.7495 7.76566 23.9759 7.48283 24.3156 7.32121C24.6553 7.1596 25.1002 7.07879 25.6501 7.07879C26.6369 7.07879 27.1302 7.35354 27.1302 7.90303C27.1302 8.12929 27.0817 8.38788 26.9847 8.67879C26.5641 9.93939 26.1435 11.6525 25.7229 13.8182C25.3024 15.9677 25.0031 18.0202 24.8252 19.9758C25.6016 20.0404 26.2325 20.0727 26.7178 20.0727C28.9824 20.0727 30.6404 19.7495 31.6918 19.103C32.7594 18.4404 33.2932 17.6 33.2932 16.5818C33.2932 15.8707 32.9859 15.2727 32.3712 14.7879C31.7727 14.303 30.7617 14.0364 29.3382 13.9879C29.0147 13.9717 28.7883 13.8909 28.6589 13.7455C28.5295 13.6 28.4647 13.3657 28.4647 13.0424C28.4647 12.5737 28.5618 12.1939 28.7559 11.903C28.95 11.6121 29.3059 11.4586 29.8235 11.4424C30.972 11.4101 32.0073 11.2404 32.9293 10.9333C33.8675 10.6263 34.6035 10.198 35.1373 9.64849C35.6711 9.08283 35.938 8.42828 35.938 7.68485C35.938 6.74748 35.477 6.01212 34.555 5.47879C33.6329 4.92929 32.2176 4.65455 30.3088 4.65455C28.578 4.65455 26.9038 4.88081 25.2862 5.33333C23.6686 5.7697 22.2936 6.32727 21.1613 7.00606C20.6437 7.31313 20.207 7.46667 19.8511 7.46667C19.5599 7.46667 19.3335 7.3697 19.1717 7.17576C19.0261 6.96566 18.9533 6.70707 18.9533 6.4C18.9533 5.99596 19.0342 5.64849 19.196 5.35758C19.3739 5.06667 19.7864 4.73535 20.4334 4.36364C21.7922 3.58788 23.3855 2.98182 25.2134 2.54545C27.0413 2.10909 28.9096 1.89091 30.8183 1.89091C33.7462 1.89091 35.9299 2.38384 37.3696 3.3697C38.8092 4.35556 39.5291 5.65657 39.5291 7.27273Z" fill="black"/>
<path d="M41.2182 22.9091C40.4903 22.9091 39.8918 22.5778 39.4227 21.9152C38.9698 21.2364 38.7433 20.396 38.7433 19.3939C38.7433 18.1818 38.8242 17.0747 38.986 16.0727C39.1477 15.0545 39.4146 13.9798 39.7867 12.8485C39.9484 12.3636 40.1749 12.0162 40.466 11.8061C40.7572 11.596 41.2182 11.4909 41.8491 11.4909C42.205 11.4909 42.4476 11.5475 42.577 11.6606C42.7226 11.7737 42.7954 11.9434 42.7954 12.1697C42.7954 12.299 42.7064 12.7354 42.5285 13.4788C42.3667 14.0768 42.2373 14.6182 42.1403 15.103C41.8167 16.8 41.655 17.9313 41.655 18.497C41.655 18.8364 41.6954 19.0788 41.7763 19.2242C41.8572 19.3535 41.9866 19.4182 42.1645 19.4182C42.4072 19.4182 42.7064 19.1758 43.0623 18.6909C43.4343 18.2061 43.8225 17.4707 44.2269 16.4848C44.6475 15.499 45.0519 14.2869 45.4401 12.8485C45.5695 12.3636 45.7637 12.0162 46.0225 11.8061C46.2975 11.596 46.7019 11.4909 47.2357 11.4909C47.6077 11.4909 47.8665 11.5394 48.0121 11.6364C48.1577 11.7172 48.2305 11.8788 48.2305 12.1212C48.2305 12.5253 48.0283 13.6323 47.6239 15.4424C47.171 17.5111 46.9445 18.7879 46.9445 19.2727C46.9445 19.5798 47.0092 19.8222 47.1386 20C47.268 20.1616 47.4379 20.2424 47.6481 20.2424C47.9717 20.2424 48.3518 20.0485 48.7885 19.6606C49.2415 19.2566 49.84 18.6101 50.5841 17.7212C50.7782 17.4949 50.9966 17.3818 51.2392 17.3818C51.4495 17.3818 51.6112 17.4788 51.7245 17.6727C51.8539 17.8667 51.9186 18.1333 51.9186 18.4727C51.9186 19.1192 51.7649 19.6202 51.4576 19.9758C50.762 20.8323 50.0098 21.5354 49.201 22.0849C48.4084 22.6343 47.5026 22.9091 46.4835 22.9091C45.707 22.9091 45.1328 22.6101 44.7607 22.0121C44.4049 21.4141 44.2269 20.5737 44.2269 19.4909C43.952 20.5899 43.5395 21.4384 42.9895 22.0364C42.4395 22.6182 41.8491 22.9091 41.2182 22.9091Z" fill="black"/>
<path d="M54.1002 22.9091C52.515 22.9091 51.2775 22.4646 50.3879 21.5758C49.5144 20.6707 49.0776 19.4828 49.0776 18.0121C49.0776 16.703 49.3364 15.5556 49.8541 14.5697C50.3717 13.5838 51.043 12.8242 51.868 12.2909C52.6929 11.7576 53.5583 11.4909 54.4642 11.4909C55.3539 11.4909 56.0413 11.7576 56.5266 12.2909C57.0281 12.8081 57.2788 13.4788 57.2788 14.303C57.2788 14.9818 57.1251 15.5556 56.8178 16.0242C56.5266 16.4929 56.1384 16.7273 55.6531 16.7273C55.3458 16.7273 55.0951 16.6545 54.9009 16.5091C54.723 16.3636 54.634 16.1616 54.634 15.903C54.634 15.7899 54.6502 15.6606 54.6826 15.5152C54.7149 15.3697 54.7392 15.2646 54.7554 15.2C54.8362 14.9576 54.8767 14.7313 54.8767 14.5212C54.8767 14.3111 54.8201 14.1495 54.7068 14.0364C54.6098 13.9232 54.4642 13.8667 54.2701 13.8667C53.898 13.8667 53.5503 14.0364 53.2267 14.3758C52.9032 14.699 52.6444 15.1434 52.4503 15.7091C52.2562 16.2747 52.1591 16.897 52.1591 17.5758C52.1591 19.4505 52.976 20.3879 54.6098 20.3879C55.273 20.3879 55.9847 20.1697 56.745 19.7333C57.5214 19.2808 58.2817 18.6101 59.0258 17.7212C59.2199 17.4949 59.4383 17.3818 59.6809 17.3818C59.8912 17.3818 60.053 17.4788 60.1662 17.6727C60.2956 17.8667 60.3603 18.1333 60.3603 18.4727C60.3603 19.0869 60.2066 19.5879 59.8993 19.9758C59.139 20.9131 58.2251 21.6404 57.1575 22.1576C56.106 22.6586 55.087 22.9091 54.1002 22.9091Z" fill="black"/>
<path d="M71.9381 17.3818C72.1484 17.3818 72.3102 17.4788 72.4234 17.6727C72.5528 17.8667 72.6175 18.1333 72.6175 18.4727C72.6175 19.1192 72.4639 19.6202 72.1565 19.9758C71.4286 20.8646 70.6926 21.5758 69.9485 22.1091C69.2044 22.6424 68.3228 22.9091 67.3037 22.9091C66.0582 22.9091 65.0553 22.5535 64.295 21.8424C63.5348 21.1313 63.1546 20.1859 63.1546 19.0061C63.1546 18.3758 63.4781 17.9232 64.1252 17.6485C64.8369 17.3414 65.3465 17.0182 65.6538 16.6788C65.9611 16.3232 66.1148 15.8949 66.1148 15.3939C66.1148 15.103 66.0501 14.8848 65.9207 14.7394C65.8075 14.5939 65.6619 14.5212 65.4839 14.5212C65.0472 14.5212 64.5619 14.8364 64.0281 15.4667C63.5105 16.097 63.0252 16.9131 62.5723 17.9152C62.1194 18.901 61.7635 19.9192 61.5047 20.9697C61.3267 21.7293 61.1165 22.2465 60.8738 22.5212C60.6474 22.7798 60.2834 22.9091 59.782 22.9091C59.2805 22.9091 58.9085 22.7313 58.6658 22.3758C58.4394 22.004 58.2857 21.4384 58.2048 20.6788C58.1239 19.9192 58.0835 18.804 58.0835 17.3333C58.0835 14.8444 58.3342 12.2505 58.8357 9.55152C59.3533 6.85253 60.1055 4.5899 61.0922 2.76364C62.0951 0.921212 63.2921 0 64.6832 0C65.4273 0 66.0258 0.323232 66.4788 0.969697C66.9479 1.6 67.1824 2.42424 67.1824 3.44242C67.1824 5.07475 66.7052 6.77172 65.7508 8.53333C64.7965 10.2788 63.2436 12.3232 61.0922 14.6667C61.0437 15.5071 61.0194 16.3717 61.0194 17.2606C61.7958 15.2404 62.6855 13.7778 63.6884 12.8727C64.6913 11.9515 65.6295 11.4909 66.503 11.4909C67.3118 11.4909 67.9589 11.7657 68.4441 12.3152C68.9456 12.8646 69.1963 13.5434 69.1963 14.3515C69.1963 15.2404 68.9699 16.0566 68.5169 16.8C68.064 17.5434 67.2876 18.2061 66.1876 18.7879C66.2523 19.2242 66.4464 19.5798 66.7699 19.8545C67.1096 20.1131 67.514 20.2424 67.9831 20.2424C68.4846 20.2424 68.9698 20.0485 69.4389 19.6606C69.9081 19.2727 70.5227 18.6263 71.283 17.7212C71.4771 17.4949 71.6955 17.3818 71.9381 17.3818ZM64.1737 2.4C63.8825 2.4 63.559 2.8202 63.2031 3.66061C62.8473 4.48485 62.4995 5.60808 62.1598 7.0303C61.8363 8.43636 61.5694 9.97172 61.3591 11.6364C62.362 10.4566 63.187 9.17172 63.834 7.78182C64.4972 6.39192 64.8288 5.13131 64.8288 4C64.8288 3.48283 64.7722 3.08687 64.659 2.81212C64.5457 2.53737 64.384 2.4 64.1737 2.4Z" fill="black"/>
<path d="M80.998 17.3818C81.2083 17.3818 81.3701 17.4788 81.4833 17.6727C81.6127 17.8667 81.6774 18.1333 81.6774 18.4727C81.6774 19.1192 81.5237 19.6202 81.2164 19.9758C80.6179 20.703 79.7687 21.3737 78.6687 21.9879C77.5849 22.602 76.4202 22.9091 75.1747 22.9091C73.4762 22.9091 72.1579 22.4485 71.2197 21.5273C70.2815 20.6061 69.8124 19.3455 69.8124 17.7455C69.8124 16.6303 70.0469 15.596 70.516 14.6424C70.9851 13.6727 71.6322 12.9051 72.4572 12.3394C73.2983 11.7737 74.2446 11.4909 75.296 11.4909C76.2342 11.4909 76.9864 11.7737 77.5526 12.3394C78.1187 12.8889 78.4018 13.6404 78.4018 14.5939C78.4018 15.7091 77.9974 16.6707 77.1886 17.4788C76.396 18.2707 75.0453 18.901 73.1365 19.3697C73.5409 20.1131 74.3093 20.4848 75.4416 20.4848C76.1695 20.4848 76.9945 20.2343 77.9165 19.7333C78.8547 19.2162 79.6635 18.5455 80.3429 17.7212C80.537 17.4949 80.7554 17.3818 80.998 17.3818ZM74.8835 13.8667C74.285 13.8667 73.7755 14.2141 73.3549 14.9091C72.9505 15.604 72.7483 16.4444 72.7483 17.4303V17.4788C73.7027 17.2525 74.4549 16.9131 75.0049 16.4606C75.5548 16.0081 75.8298 15.4828 75.8298 14.8848C75.8298 14.5778 75.7409 14.3354 75.5629 14.1576C75.4012 13.9636 75.1747 13.8667 74.8835 13.8667Z" fill="black"/>
<path d="M83.2201 13.7939C83.1877 14.602 83.1715 15.2323 83.1715 15.6848C83.1715 16.8485 83.2281 17.7616 83.3414 18.4242C83.4708 19.0707 83.673 19.5394 83.948 19.8303C84.2391 20.1051 84.6354 20.2424 85.1369 20.2424C85.3957 20.2424 85.703 20.1616 86.0589 20C86.4148 19.8384 86.7383 19.6283 87.0295 19.3697C87.2074 19.2081 87.3853 19.1273 87.5633 19.1273C87.7574 19.1273 87.9111 19.2404 88.0243 19.4667C88.1537 19.6768 88.2184 19.9354 88.2184 20.2424C88.2184 20.5495 88.1537 20.8485 88.0243 21.1394C87.9111 21.4303 87.7331 21.6727 87.4905 21.8667C86.6493 22.5616 85.695 22.9091 84.6274 22.9091C83.0906 22.9091 81.9664 22.2707 81.2547 20.9939C80.5429 19.701 80.1871 18.0202 80.1871 15.9515C80.1871 15.2404 80.2113 14.5212 80.2599 13.7939H79.3136C78.8283 13.7939 78.4967 13.7051 78.3188 13.5273C78.157 13.3495 78.0761 13.0667 78.0761 12.6788C78.0761 11.7737 78.4401 11.3212 79.168 11.3212H80.551C80.826 9.54344 81.2466 7.91919 81.8128 6.44849C82.3789 4.97778 83.0583 3.80606 83.8509 2.93333C84.6597 2.06061 85.5251 1.62424 86.4471 1.62424C87.1265 1.62424 87.6603 1.92323 88.0486 2.52121C88.4368 3.11919 88.6309 3.87071 88.6309 4.77576C88.6309 7.28081 87.5795 9.46263 85.4766 11.3212H88.1941C88.4529 11.3212 88.639 11.3778 88.7522 11.4909C88.8654 11.604 88.9221 11.8141 88.9221 12.1212C88.9221 13.2364 88.0081 13.7939 86.1802 13.7939H83.2201ZM85.792 3.95152C85.5494 3.95152 85.2744 4.25859 84.967 4.87273C84.6759 5.47071 84.3928 6.31111 84.1178 7.39394C83.859 8.46061 83.6406 9.64849 83.4627 10.9576C84.4171 10.1333 85.1288 9.21212 85.5979 8.19394C86.0832 7.1596 86.3258 6.22222 86.3258 5.38182C86.3258 4.42828 86.1479 3.95152 85.792 3.95152Z" fill="black"/>
</svg>
