<svg width="16" height="16" viewBox="0 0 16 16" fill="none" xmlns="http://www.w3.org/2000/svg">
<path fill-rule="evenodd" clip-rule="evenodd" d="M16 1.9999C16 2.33127 15.7314 2.5999 15.4 2.5999H0.6C0.268629 2.5999 0 2.33127 0 1.9999C0 1.66853 0.268629 1.3999 0.6 1.3999H15.4C15.7314 1.3999 16 1.66853 16 1.9999Z" fill="black"/>
<path fill-rule="evenodd" clip-rule="evenodd" d="M16 7.9999C16 8.33127 15.7314 8.5999 15.4 8.5999H0.6C0.268629 8.5999 0 8.33127 0 7.9999C0 7.66853 0.268629 7.3999 0.6 7.3999H15.4C15.7314 7.3999 16 7.66853 16 7.9999Z" fill="black"/>
<path fill-rule="evenodd" clip-rule="evenodd" d="M16 13.9999C16 14.3313 15.7314 14.5999 15.4 14.5999H0.6C0.268629 14.5999 0 14.3313 0 13.9999C0 13.6685 0.268629 13.3999 0.6 13.3999H15.4C15.7314 13.3999 16 13.6685 16 13.9999Z" fill="black"/>
</svg>
