<svg width="16" height="16" viewBox="0 0 16 16" fill="none" xmlns="http://www.w3.org/2000/svg">
<g clip-path="url(#clip0_1_4242)">
<path d="M8.5999 0.6C8.5999 0.268629 8.33127 0 7.9999 0C7.66853 0 7.3999 0.268629 7.3999 0.6V7.40039H0.6C0.268629 7.40039 0 7.66902 0 8.00039C0 8.33176 0.268629 8.60039 0.6 8.60039H7.3999V15.4C7.3999 15.7314 7.66853 16 7.9999 16C8.33127 16 8.5999 15.7314 8.5999 15.4V8.60039H15.4C15.7314 8.60039 16 8.33176 16 8.00039C16 7.66902 15.7314 7.40039 15.4 7.40039H8.5999V0.6Z" fill="black"/>
</g>
<defs>
<clipPath id="clip0_1_4242">
<rect width="16" height="16" fill="white"/>
</clipPath>
</defs>
</svg>
