<svg width="16" height="16" viewBox="0 0 16 16" fill="none" xmlns="http://www.w3.org/2000/svg">
<path fill-rule="evenodd" clip-rule="evenodd" d="M7.67858 0.673099C7.91225 0.442422 8.28794 0.442422 8.52162 0.673099L12.0671 4.1731C12.3029 4.4059 12.3053 4.78579 12.0725 5.02161C11.8397 5.25743 11.4599 5.25988 11.224 5.02708L8.7001 2.53551V11.0168C8.7001 11.3481 8.43147 11.6168 8.1001 11.6168C7.76873 11.6168 7.5001 11.3481 7.5001 11.0168V2.53551L4.97616 5.02708C4.74034 5.25988 4.36045 5.25743 4.12765 5.02161C3.89485 4.78579 3.8973 4.4059 4.13312 4.1731L7.67858 0.673099ZM1.6001 8.66676C1.93147 8.66676 2.2001 8.93539 2.2001 9.26676V13.9334C2.2001 14.0812 2.25949 14.2245 2.36776 14.3314C2.4763 14.4385 2.62513 14.5001 2.78192 14.5001H13.4183C13.5751 14.5001 13.7239 14.4385 13.8324 14.3314C13.9407 14.2245 14.0001 14.0812 14.0001 13.9334V9.26676C14.0001 8.93539 14.2687 8.66676 14.6001 8.66676C14.9315 8.66676 15.2001 8.93539 15.2001 9.26676V13.9334C15.2001 14.4045 15.0105 14.8547 14.6755 15.1854C14.3407 15.5158 13.8884 15.7001 13.4183 15.7001H2.78192C2.31183 15.7001 1.85946 15.5158 1.52473 15.1854C1.18973 14.8547 1.0001 14.4045 1.0001 13.9334V9.26676C1.0001 8.93539 1.26873 8.66676 1.6001 8.66676Z" fill="black"/>
</svg>
