<svg width="32" height="32" viewBox="0 0 32 32" fill="none" xmlns="http://www.w3.org/2000/svg">
<path fill-rule="evenodd" clip-rule="evenodd" d="M8.80021 11.0375C8.73472 10.6142 8.6854 10.1957 8.65353 9.77708C8.60551 9.1492 8.6352 8.51652 8.61817 7.88864C8.61075 7.62227 8.5815 6.92781 8.59328 6.82792C8.70024 5.95746 9.34502 5.82425 9.53361 5.80047C9.62485 5.7862 10.5617 5.67209 10.7638 6.80417C11.0118 8.18836 11.0912 9.58204 11.0035 10.9472C11.2082 12.1078 11.5583 13.2637 12.0206 14.3101C13.8603 18.4722 17.3657 18.8765 21.1637 18.8385C21.7478 18.8289 22.2328 19.3284 22.2634 19.961C22.294 20.5984 21.8592 21.1502 21.2777 21.2073C19.1547 21.4308 15.3882 23.2859 14.0859 25.2171C13.8135 25.6214 13.6551 26.5966 13.4455 27.5527C13.153 28.8798 12.8051 30.1926 12.4153 30.7443C12.3568 30.83 11.6456 31.7052 11.4335 31.8336C10.9236 32.1381 10.5154 31.962 10.2836 31.8003C10.0518 31.6386 9.78943 31.3199 9.68466 30.7919C9.57508 30.2401 9.66763 29.108 9.65061 28.8654C9.58862 27.9855 9.42711 26.2588 9.09751 24.7747C8.91984 23.9756 8.73036 23.2383 8.41692 22.8721C7.25657 21.5164 5.40124 21.7162 3.83883 21.9398C3.65941 21.9636 3.47999 21.9921 3.301 22.0159C2.66495 22.2205 1.98959 22.3726 1.27583 22.463C0.197993 22.601 0.0207664 21.5212 0.0111623 21.4498C-0.00891894 21.2929 -0.0835767 20.4843 0.728841 20.1608C0.817461 20.1275 1.47142 19.9705 1.72331 19.9087C2.07429 19.8231 2.4292 19.7565 2.78542 19.6947C6.4651 18.4484 8.46363 14.9475 8.80021 11.0375ZM10.0631 15.3614C11.4522 18.4912 13.5603 20.0038 16.0591 20.6888H16.0587C14.4985 21.5783 13.0793 22.6914 12.3271 23.8092C12.0416 24.2325 11.7797 25.0839 11.5435 26.04C11.4156 25.1505 11.2427 24.2039 11.0144 23.3953C10.7546 22.4725 10.405 21.7067 10.0147 21.2501C9.2612 20.3701 8.31563 19.8802 7.2989 19.6376C8.516 18.4627 9.43888 16.9977 10.0631 15.3614Z" fill="black"/>
<path fill-rule="evenodd" clip-rule="evenodd" d="M18.8242 7.1558C19.5256 6.8986 20.2637 6.55676 20.8329 6.06186C21.509 5.47404 21.7839 4.71697 21.9685 3.92007C22.2056 2.89625 22.3003 1.80563 22.5877 0.780158C22.6941 0.399337 22.8989 0.255386 22.9868 0.191501C23.2089 0.0301296 23.4334 -0.013005 23.6447 0.00317367C23.895 0.0218413 24.2389 0.119321 24.465 0.551167C24.4973 0.612977 24.5392 0.70715 24.5674 0.836165C24.588 0.930747 24.6013 1.22652 24.623 1.34848C24.6775 1.64882 24.723 1.94918 24.7657 2.25118C24.908 3.25633 24.9899 4.11005 25.4394 5.03348C26.0493 6.28712 26.6604 7.05415 27.4892 7.3939C28.2906 7.72245 29.2488 7.66066 30.4731 7.40304C30.5896 7.374 30.7049 7.34911 30.819 7.32878C31.3588 7.23171 31.8748 7.59635 31.9808 8.14974C32.0868 8.70272 31.7438 9.24159 31.2088 9.36314C31.0972 9.38844 30.9871 9.4125 30.8783 9.43449C29.2239 9.85596 27.3086 11.3602 26.1956 12.6773C25.8526 13.0834 25.3503 14.2188 24.8379 14.9431C24.4598 15.4774 24.0349 15.8296 23.6781 15.9541C23.4391 16.0379 23.2375 16.025 23.071 15.9827C22.8292 15.9213 22.6284 15.7865 22.4744 15.572C22.3906 15.4546 22.3128 15.2974 22.2757 15.0966C22.2579 14.9999 22.2559 14.7544 22.2563 14.6432C22.1519 14.2736 22.0241 13.9127 21.931 13.5397C21.7089 12.6499 21.2731 12.0865 20.7555 11.3423C20.2714 10.6458 19.7514 10.2082 18.9891 9.85887C18.8899 9.83398 18.0897 9.63236 17.8071 9.51662C17.3943 9.34696 17.1976 9.06279 17.1262 8.90971C17.0049 8.65002 16.9924 8.42312 17.0166 8.23396C17.0525 7.95477 17.1742 7.71583 17.3903 7.52293C17.5241 7.40304 17.7241 7.28646 17.9917 7.22963C18.1985 7.18524 18.7472 7.15953 18.8242 7.1558ZM23.5185 5.70551C23.5556 5.79055 23.5951 5.87602 23.637 5.9623C24.5303 7.79837 25.5293 8.82344 26.7435 9.32083L26.7842 9.33701C25.9719 9.9576 25.2366 10.6512 24.6746 11.3162C24.4432 11.59 24.1369 12.1587 23.8059 12.742C23.5052 11.736 23.0134 11.025 22.395 10.1352C21.9226 9.45607 21.4275 8.945 20.8192 8.5285C21.2913 8.27918 21.7415 7.98713 22.1338 7.64614C22.7868 7.07822 23.2186 6.42028 23.5185 5.70551Z" fill="black"/>
</svg>
