<svg width="16" height="16" viewBox="0 0 16 16" fill="none" xmlns="http://www.w3.org/2000/svg">
<path fill-rule="evenodd" clip-rule="evenodd" d="M11.8051 0.5C12.1235 0.499905 12.4393 0.559973 12.7347 0.677309C13.0301 0.794658 13.3 0.967299 13.5285 1.18648L14.2747 1.9037C14.7359 2.34642 14.9995 2.95181 14.9995 3.5883C14.9995 4.22479 14.7359 4.83018 14.2747 5.27289L6.71819 12.5239C6.25739 12.9669 5.63737 13.2113 4.99557 13.2113H2.43182C2.08036 13.2113 1.79545 12.9275 1.79545 12.5775V10.1341C1.79545 10.134 1.79545 10.1341 1.79545 10.1341C1.79537 9.49769 2.05888 8.89223 2.51984 8.44947L10.0822 1.18752C10.0821 1.18755 10.0822 1.18748 10.0822 1.18752C10.3104 0.968247 10.5803 0.795371 10.8756 0.677864C11.1709 0.560351 11.4867 0.500095 11.8051 0.5ZM12.2632 1.85472C12.1188 1.79735 11.9631 1.76756 11.8055 1.76761C11.6478 1.76765 11.4922 1.79753 11.3478 1.85499C11.2035 1.91244 11.0738 1.99602 10.9658 2.09983L3.40334 9.3619C3.40332 9.36192 3.40336 9.36188 3.40334 9.3619C3.18573 9.57095 3.06813 9.84913 3.06818 10.1338V11.9437H4.99557C5.31467 11.9437 5.61579 11.8219 5.83431 11.6119L13.3914 4.36023C13.3914 4.36026 13.3915 4.3602 13.3914 4.36023C13.6091 4.15122 13.7268 3.873 13.7268 3.5883C13.7268 3.30355 13.6092 3.02538 13.3914 2.81636L12.6454 2.09934C12.5373 1.99559 12.4076 1.91209 12.2632 1.85472ZM1 14.8662C1 14.5162 1.28491 14.2324 1.63636 14.2324H14.3636C14.7151 14.2324 15 14.5162 15 14.8662C15 15.2162 14.7151 15.5 14.3636 15.5H1.63636C1.28491 15.5 1 15.2162 1 14.8662Z" fill="black"/>
</svg>
